# xmcd
#
# Track frame offsets:
#	150
#	7098
#	12242
#	20167
#	29931
#	38444
#	44488
#	54067
#	63221
#	70746
#	74051
#	79901
#	87588
#	99070
#	107685
#	113815
#	122199
#	131591
#	139917
#	148710
#
# Disc length: 2096 seconds
#
# Revision: 0
# Processed by: cddbd v1.5.2PL0 Copyright (c) Steve Scherf et al.
# Submitted via: EasyCDDAExtractor 10.0.1.1
#
DISCID=1e082e14
DTITLE=Little Maestros - Hooray!
DYEAR=2002
DGENRE=Other
TTITLE0=I'm a Little Mastro
TTITLE1=Conductor Jack
TTITLE2=Old McDonald Had A Farm
TTITLE3=Bubble Bath
TTITLE4=Spic and Span
TTITLE5=Captain Cook's A-Sailing
TTITLE6=Mister Piggy
TTITLE7=Slippery Dippery Dip
TTITLE8=Baby Boot Scoot
TTITLE9=Hansel Dance
TTITLE10=Glad To Be Glissin'
TTITLE11=Cold Night Air
TTITLE12=At The Farm
TTITLE13=Evening Prayer
TTITLE14=Die Fledermaus Waltz
TTITLE15=Hipperty Hopperty
TTITLE16=Twinkle Twinkle Little Star
TTITLE17=Brahms Lullaby
TTITLE18=La Ci Daren La Mano
TTITLE19=Mexican Hat Dance
EXTD=
EXTT0=
EXTT1=
EXTT2=
EXTT3=
EXTT4=
EXTT5=
EXTT6=
EXTT7=
EXTT8=
EXTT9=
EXTT10=
EXTT11=
EXTT12=
EXTT13=
EXTT14=
EXTT15=
EXTT16=
EXTT17=
EXTT18=
EXTT19=
PLAYORDER=
